<mxfile host="app.diagrams.net" modified="2023-02-08T11:57:20.826Z" agent="5.0 (Windows NT 10.0; Win64; x64) AppleWebKit/537.36 (KHTML, like Gecko) Chrome/109.0.0.0 Safari/537.36" etag="l3YG0Y11Fn9FM-D00qhv" version="20.8.18" type="github">
  <diagram id="C5RBs43oDa-KdzZeNtuy" name="Page-1">
    <mxGraphModel dx="2580" dy="2343" grid="1" gridSize="10" guides="1" tooltips="1" connect="1" arrows="1" fold="1" page="1" pageScale="1" pageWidth="827" pageHeight="1169" math="0" shadow="0">
      <root>
        <mxCell id="WIyWlLk6GJQsqaUBKTNV-0" />
        <mxCell id="WIyWlLk6GJQsqaUBKTNV-1" parent="WIyWlLk6GJQsqaUBKTNV-0" />
        <mxCell id="TJLLSo8e5kZlKUlmj2cG-0" value="&lt;font style=&quot;font-size: 24px;&quot;&gt;enter the options&lt;/font&gt;" style="rounded=0;whiteSpace=wrap;html=1;" vertex="1" parent="WIyWlLk6GJQsqaUBKTNV-1">
          <mxGeometry x="110" y="100" width="660" height="70" as="geometry" />
        </mxCell>
        <mxCell id="TJLLSo8e5kZlKUlmj2cG-20" style="edgeStyle=orthogonalEdgeStyle;rounded=0;orthogonalLoop=1;jettySize=auto;html=1;entryX=0.5;entryY=1;entryDx=0;entryDy=0;" edge="1" parent="WIyWlLk6GJQsqaUBKTNV-1" source="TJLLSo8e5kZlKUlmj2cG-2" target="TJLLSo8e5kZlKUlmj2cG-0">
          <mxGeometry relative="1" as="geometry" />
        </mxCell>
        <mxCell id="TJLLSo8e5kZlKUlmj2cG-29" value="" style="edgeStyle=orthogonalEdgeStyle;rounded=0;orthogonalLoop=1;jettySize=auto;html=1;fontSize=24;" edge="1" parent="WIyWlLk6GJQsqaUBKTNV-1" source="TJLLSo8e5kZlKUlmj2cG-2" target="TJLLSo8e5kZlKUlmj2cG-28">
          <mxGeometry relative="1" as="geometry" />
        </mxCell>
        <mxCell id="TJLLSo8e5kZlKUlmj2cG-2" value="Enter a name" style="rounded=0;whiteSpace=wrap;html=1;" vertex="1" parent="WIyWlLk6GJQsqaUBKTNV-1">
          <mxGeometry x="60" y="230" width="120" height="60" as="geometry" />
        </mxCell>
        <mxCell id="TJLLSo8e5kZlKUlmj2cG-19" value="" style="edgeStyle=orthogonalEdgeStyle;rounded=0;orthogonalLoop=1;jettySize=auto;html=1;" edge="1" parent="WIyWlLk6GJQsqaUBKTNV-1" source="TJLLSo8e5kZlKUlmj2cG-5" target="TJLLSo8e5kZlKUlmj2cG-0">
          <mxGeometry relative="1" as="geometry" />
        </mxCell>
        <mxCell id="TJLLSo8e5kZlKUlmj2cG-34" style="edgeStyle=orthogonalEdgeStyle;rounded=0;orthogonalLoop=1;jettySize=auto;html=1;entryX=0.5;entryY=0;entryDx=0;entryDy=0;fontSize=8;" edge="1" parent="WIyWlLk6GJQsqaUBKTNV-1" source="TJLLSo8e5kZlKUlmj2cG-5" target="TJLLSo8e5kZlKUlmj2cG-32">
          <mxGeometry relative="1" as="geometry" />
        </mxCell>
        <mxCell id="TJLLSo8e5kZlKUlmj2cG-5" value="Search for a name" style="rounded=0;whiteSpace=wrap;html=1;" vertex="1" parent="WIyWlLk6GJQsqaUBKTNV-1">
          <mxGeometry x="220" y="230" width="120" height="60" as="geometry" />
        </mxCell>
        <mxCell id="TJLLSo8e5kZlKUlmj2cG-18" value="" style="edgeStyle=orthogonalEdgeStyle;rounded=0;orthogonalLoop=1;jettySize=auto;html=1;" edge="1" parent="WIyWlLk6GJQsqaUBKTNV-1" source="TJLLSo8e5kZlKUlmj2cG-8" target="TJLLSo8e5kZlKUlmj2cG-0">
          <mxGeometry relative="1" as="geometry" />
        </mxCell>
        <mxCell id="TJLLSo8e5kZlKUlmj2cG-38" value="" style="edgeStyle=orthogonalEdgeStyle;rounded=0;orthogonalLoop=1;jettySize=auto;html=1;fontSize=8;" edge="1" parent="WIyWlLk6GJQsqaUBKTNV-1" source="TJLLSo8e5kZlKUlmj2cG-8" target="TJLLSo8e5kZlKUlmj2cG-35">
          <mxGeometry relative="1" as="geometry" />
        </mxCell>
        <mxCell id="TJLLSo8e5kZlKUlmj2cG-8" value="Remove a name" style="rounded=0;whiteSpace=wrap;html=1;" vertex="1" parent="WIyWlLk6GJQsqaUBKTNV-1">
          <mxGeometry x="380" y="230" width="120" height="60" as="geometry" />
        </mxCell>
        <mxCell id="TJLLSo8e5kZlKUlmj2cG-17" value="" style="edgeStyle=orthogonalEdgeStyle;rounded=0;orthogonalLoop=1;jettySize=auto;html=1;" edge="1" parent="WIyWlLk6GJQsqaUBKTNV-1" source="TJLLSo8e5kZlKUlmj2cG-10" target="TJLLSo8e5kZlKUlmj2cG-0">
          <mxGeometry relative="1" as="geometry" />
        </mxCell>
        <mxCell id="TJLLSo8e5kZlKUlmj2cG-41" style="edgeStyle=orthogonalEdgeStyle;rounded=0;orthogonalLoop=1;jettySize=auto;html=1;fontSize=8;" edge="1" parent="WIyWlLk6GJQsqaUBKTNV-1" source="TJLLSo8e5kZlKUlmj2cG-10" target="TJLLSo8e5kZlKUlmj2cG-39">
          <mxGeometry relative="1" as="geometry">
            <Array as="points">
              <mxPoint x="600" y="320" />
              <mxPoint x="600" y="320" />
            </Array>
          </mxGeometry>
        </mxCell>
        <mxCell id="TJLLSo8e5kZlKUlmj2cG-10" value="Show all names" style="rounded=0;whiteSpace=wrap;html=1;" vertex="1" parent="WIyWlLk6GJQsqaUBKTNV-1">
          <mxGeometry x="540" y="230" width="130" height="60" as="geometry" />
        </mxCell>
        <mxCell id="TJLLSo8e5kZlKUlmj2cG-16" value="" style="edgeStyle=orthogonalEdgeStyle;rounded=0;orthogonalLoop=1;jettySize=auto;html=1;" edge="1" parent="WIyWlLk6GJQsqaUBKTNV-1" source="TJLLSo8e5kZlKUlmj2cG-12" target="TJLLSo8e5kZlKUlmj2cG-0">
          <mxGeometry relative="1" as="geometry">
            <Array as="points">
              <mxPoint x="775" y="200" />
              <mxPoint x="440" y="200" />
            </Array>
          </mxGeometry>
        </mxCell>
        <mxCell id="TJLLSo8e5kZlKUlmj2cG-43" style="edgeStyle=orthogonalEdgeStyle;rounded=0;orthogonalLoop=1;jettySize=auto;html=1;entryX=0.461;entryY=0.01;entryDx=0;entryDy=0;entryPerimeter=0;fontSize=10;" edge="1" parent="WIyWlLk6GJQsqaUBKTNV-1" source="TJLLSo8e5kZlKUlmj2cG-12" target="TJLLSo8e5kZlKUlmj2cG-42">
          <mxGeometry relative="1" as="geometry" />
        </mxCell>
        <mxCell id="TJLLSo8e5kZlKUlmj2cG-12" value="Exit" style="rounded=0;whiteSpace=wrap;html=1;" vertex="1" parent="WIyWlLk6GJQsqaUBKTNV-1">
          <mxGeometry x="710" y="230" width="130" height="60" as="geometry" />
        </mxCell>
        <mxCell id="TJLLSo8e5kZlKUlmj2cG-27" value="" style="edgeStyle=orthogonalEdgeStyle;rounded=0;orthogonalLoop=1;jettySize=auto;html=1;fontSize=24;" edge="1" parent="WIyWlLk6GJQsqaUBKTNV-1" source="TJLLSo8e5kZlKUlmj2cG-26" target="TJLLSo8e5kZlKUlmj2cG-0">
          <mxGeometry relative="1" as="geometry" />
        </mxCell>
        <mxCell id="TJLLSo8e5kZlKUlmj2cG-26" value="Start&lt;br&gt;" style="ellipse;whiteSpace=wrap;html=1;fontSize=24;" vertex="1" parent="WIyWlLk6GJQsqaUBKTNV-1">
          <mxGeometry x="380" y="-10" width="120" height="80" as="geometry" />
        </mxCell>
        <mxCell id="TJLLSo8e5kZlKUlmj2cG-52" style="edgeStyle=orthogonalEdgeStyle;rounded=0;orthogonalLoop=1;jettySize=auto;html=1;exitX=0.5;exitY=1;exitDx=0;exitDy=0;fontSize=10;" edge="1" parent="WIyWlLk6GJQsqaUBKTNV-1" source="TJLLSo8e5kZlKUlmj2cG-28" target="TJLLSo8e5kZlKUlmj2cG-45">
          <mxGeometry relative="1" as="geometry" />
        </mxCell>
        <mxCell id="TJLLSo8e5kZlKUlmj2cG-28" value="&lt;div style=&quot;&quot;&gt;&lt;font style=&quot;font-size: 8px;&quot;&gt;We take a name as input, check if there&#39;s space to add a name in the array, or if the provided name is already present, if not , then add the name to the array.&lt;/font&gt;&lt;br&gt;&lt;/div&gt;" style="whiteSpace=wrap;html=1;rounded=0;fontSize=08;align=left;" vertex="1" parent="WIyWlLk6GJQsqaUBKTNV-1">
          <mxGeometry x="20" y="470" width="200" height="40" as="geometry" />
        </mxCell>
        <mxCell id="TJLLSo8e5kZlKUlmj2cG-51" style="edgeStyle=orthogonalEdgeStyle;rounded=0;orthogonalLoop=1;jettySize=auto;html=1;exitX=0.5;exitY=1;exitDx=0;exitDy=0;entryX=0.5;entryY=0;entryDx=0;entryDy=0;fontSize=10;" edge="1" parent="WIyWlLk6GJQsqaUBKTNV-1" source="TJLLSo8e5kZlKUlmj2cG-32" target="TJLLSo8e5kZlKUlmj2cG-45">
          <mxGeometry relative="1" as="geometry" />
        </mxCell>
        <mxCell id="TJLLSo8e5kZlKUlmj2cG-32" value="&amp;nbsp;We check if the name is present in the array,( by iterating through it) we return the index of where it is present, if it is. Else we validate the absence of it." style="rounded=0;whiteSpace=wrap;html=1;fontSize=8;" vertex="1" parent="WIyWlLk6GJQsqaUBKTNV-1">
          <mxGeometry x="200" y="390" width="160" height="60" as="geometry" />
        </mxCell>
        <mxCell id="TJLLSo8e5kZlKUlmj2cG-50" style="edgeStyle=orthogonalEdgeStyle;rounded=0;orthogonalLoop=1;jettySize=auto;html=1;exitX=0.5;exitY=1;exitDx=0;exitDy=0;entryX=0.5;entryY=0;entryDx=0;entryDy=0;fontSize=10;" edge="1" parent="WIyWlLk6GJQsqaUBKTNV-1" source="TJLLSo8e5kZlKUlmj2cG-35" target="TJLLSo8e5kZlKUlmj2cG-45">
          <mxGeometry relative="1" as="geometry" />
        </mxCell>
        <mxCell id="TJLLSo8e5kZlKUlmj2cG-35" value="Taking a name as User Input, we check if it exists in the array, and remove it if it does by shifting the name of the next index into its place, then we resize the array." style="rounded=0;whiteSpace=wrap;html=1;fontSize=8;" vertex="1" parent="WIyWlLk6GJQsqaUBKTNV-1">
          <mxGeometry x="340" y="340" width="200" height="60" as="geometry" />
        </mxCell>
        <mxCell id="TJLLSo8e5kZlKUlmj2cG-53" style="edgeStyle=orthogonalEdgeStyle;rounded=0;orthogonalLoop=1;jettySize=auto;html=1;fontSize=10;" edge="1" parent="WIyWlLk6GJQsqaUBKTNV-1" source="TJLLSo8e5kZlKUlmj2cG-39">
          <mxGeometry relative="1" as="geometry">
            <mxPoint x="440" y="550" as="targetPoint" />
          </mxGeometry>
        </mxCell>
        <mxCell id="TJLLSo8e5kZlKUlmj2cG-39" value="&lt;font style=&quot;font-size: 10px;&quot;&gt;Show all the names present in the array&lt;/font&gt;" style="rounded=0;whiteSpace=wrap;html=1;fontSize=8;" vertex="1" parent="WIyWlLk6GJQsqaUBKTNV-1">
          <mxGeometry x="550" y="400" width="120" height="60" as="geometry" />
        </mxCell>
        <mxCell id="TJLLSo8e5kZlKUlmj2cG-59" value="" style="edgeStyle=orthogonalEdgeStyle;rounded=0;orthogonalLoop=1;jettySize=auto;html=1;fontSize=10;" edge="1" parent="WIyWlLk6GJQsqaUBKTNV-1" source="TJLLSo8e5kZlKUlmj2cG-42" target="TJLLSo8e5kZlKUlmj2cG-57">
          <mxGeometry relative="1" as="geometry" />
        </mxCell>
        <mxCell id="TJLLSo8e5kZlKUlmj2cG-42" value="&lt;font style=&quot;font-size: 10px;&quot;&gt;End the program&lt;/font&gt;" style="rounded=0;whiteSpace=wrap;html=1;fontSize=8;" vertex="1" parent="WIyWlLk6GJQsqaUBKTNV-1">
          <mxGeometry x="720" y="460" width="120" height="60" as="geometry" />
        </mxCell>
        <mxCell id="TJLLSo8e5kZlKUlmj2cG-61" style="edgeStyle=orthogonalEdgeStyle;rounded=0;orthogonalLoop=1;jettySize=auto;html=1;entryX=0;entryY=0.5;entryDx=0;entryDy=0;fontSize=10;" edge="1" parent="WIyWlLk6GJQsqaUBKTNV-1" source="TJLLSo8e5kZlKUlmj2cG-45" target="TJLLSo8e5kZlKUlmj2cG-57">
          <mxGeometry relative="1" as="geometry" />
        </mxCell>
        <mxCell id="TJLLSo8e5kZlKUlmj2cG-45" value="Do you wish to continue" style="rhombus;whiteSpace=wrap;html=1;fontSize=10;" vertex="1" parent="WIyWlLk6GJQsqaUBKTNV-1">
          <mxGeometry x="280" y="550" width="320" height="130" as="geometry" />
        </mxCell>
        <mxCell id="TJLLSo8e5kZlKUlmj2cG-49" value="" style="edgeStyle=orthogonalEdgeStyle;rounded=0;orthogonalLoop=1;jettySize=auto;html=1;fontSize=10;" edge="1" parent="WIyWlLk6GJQsqaUBKTNV-1" source="TJLLSo8e5kZlKUlmj2cG-48" target="TJLLSo8e5kZlKUlmj2cG-45">
          <mxGeometry relative="1" as="geometry" />
        </mxCell>
        <mxCell id="TJLLSo8e5kZlKUlmj2cG-48" value="Back to start" style="ellipse;whiteSpace=wrap;html=1;fontSize=10;" vertex="1" parent="WIyWlLk6GJQsqaUBKTNV-1">
          <mxGeometry x="400" y="770" width="80" height="80" as="geometry" />
        </mxCell>
        <mxCell id="TJLLSo8e5kZlKUlmj2cG-57" value="End" style="ellipse;whiteSpace=wrap;html=1;fontSize=8;rounded=0;" vertex="1" parent="WIyWlLk6GJQsqaUBKTNV-1">
          <mxGeometry x="740" y="575" width="80" height="80" as="geometry" />
        </mxCell>
      </root>
    </mxGraphModel>
  </diagram>
</mxfile>
